<svg height="100%" width="100%" fill="black" stroke="black" viewBox="-170 -170 340 340"><circle r="5" stroke="none" x="0" y="0"></circle><circle cx="0" cy="0" fill="none" r="37" stroke-width="3"></circle><circle cx="0" cy="0" fill="none" r="27" stroke-width="3"></circle><path d="M 31.6101690821271,-4.979679768753793 A 32,32 0,0,1 31.6101690821271,4.979679768753793" fill="none" stroke-width="10" transform="rotate(0)"></path><path d="M 31.6101690821271,-4.979679768753793 A 32,32 0,0,1 31.6101690821271,4.979679768753793" fill="none" stroke-width="10" transform="rotate(40)"></path><path d="M 31.6101690821271,-4.979679768753793 A 32,32 0,0,1 31.6101690821271,4.979679768753793" fill="none" stroke-width="10" transform="rotate(80)"></path><path d="M 31.6101690821271,-4.979679768753793 A 32,32 0,0,1 31.6101690821271,4.979679768753793" fill="none" stroke-width="10" transform="rotate(120)"></path><path d="M 31.6101690821271,-4.979679768753793 A 32,32 0,0,1 31.6101690821271,4.979679768753793" fill="none" stroke-width="10" transform="rotate(160)"></path><path d="M 31.6101690821271,-4.979679768753793 A 32,32 0,0,1 31.6101690821271,4.979679768753793" fill="none" stroke-width="10" transform="rotate(200)"></path><path d="M 31.6101690821271,-4.979679768753793 A 32,32 0,0,1 31.6101690821271,4.979679768753793" fill="none" stroke-width="10" transform="rotate(240)"></path><path d="M 31.6101690821271,-4.979679768753793 A 32,32 0,0,1 31.6101690821271,4.979679768753793" fill="none" stroke-width="10" transform="rotate(280)"></path><path d="M 31.6101690821271,-4.979679768753793 A 32,32 0,0,1 31.6101690821271,4.979679768753793" fill="none" stroke-width="10" transform="rotate(320)"></path><g transform="rotate(0)"><line fill="none" stroke-width="3" transform="translate(0, -2.5)" x1="0" x2="32" y1="0" y2="0"></line><line fill="none" stroke-width="3" transform="translate(0, 2.5)" x1="0" x2="32" y1="0" y2="0"></line><line fill="none" stroke-width="3" x1="0" x2="24.513422179807296" y1="0" y2="20.569203509969256"></line></g><circle cx="0" cy="0" fill="none" r="69" stroke-width="3"></circle><circle cx="0" cy="0" fill="none" r="59" stroke-width="3"></circle><path d="M 63.804786820865836,-4.994915288957908 A 64,64 0,0,1 63.804786820865836,4.994915288957908" fill="none" stroke-width="10" transform="rotate(0)"></path><path d="M 63.804786820865836,-4.994915288957908 A 64,64 0,0,1 63.804786820865836,4.994915288957908" fill="none" stroke-width="10" transform="rotate(20)"></path><path d="M 63.804786820865836,-4.994915288957908 A 64,64 0,0,1 63.804786820865836,4.994915288957908" fill="none" stroke-width="10" transform="rotate(40)"></path><path d="M 63.804786820865836,-4.994915288957908 A 64,64 0,0,1 63.804786820865836,4.994915288957908" fill="none" stroke-width="10" transform="rotate(60)"></path><path d="M 63.804786820865836,-4.994915288957908 A 64,64 0,0,1 63.804786820865836,4.994915288957908" fill="none" stroke-width="10" transform="rotate(80)"></path><path d="M 63.804786820865836,-4.994915288957908 A 64,64 0,0,1 63.804786820865836,4.994915288957908" fill="none" stroke-width="10" transform="rotate(100)"></path><path d="M 63.804786820865836,-4.994915288957908 A 64,64 0,0,1 63.804786820865836,4.994915288957908" fill="none" stroke-width="10" transform="rotate(120)"></path><path d="M 63.804786820865836,-4.994915288957908 A 64,64 0,0,1 63.804786820865836,4.994915288957908" fill="none" stroke-width="10" transform="rotate(140)"></path><path d="M 63.804786820865836,-4.994915288957908 A 64,64 0,0,1 63.804786820865836,4.994915288957908" fill="none" stroke-width="10" transform="rotate(160)"></path><path d="M 63.804786820865836,-4.994915288957908 A 64,64 0,0,1 63.804786820865836,4.994915288957908" fill="none" stroke-width="10" transform="rotate(180)"></path><path d="M 63.804786820865836,-4.994915288957908 A 64,64 0,0,1 63.804786820865836,4.994915288957908" fill="none" stroke-width="10" transform="rotate(200)"></path><path d="M 63.804786820865836,-4.994915288957908 A 64,64 0,0,1 63.804786820865836,4.994915288957908" fill="none" stroke-width="10" transform="rotate(220)"></path><path d="M 63.804786820865836,-4.994915288957908 A 64,64 0,0,1 63.804786820865836,4.994915288957908" fill="none" stroke-width="10" transform="rotate(240)"></path><path d="M 63.804786820865836,-4.994915288957908 A 64,64 0,0,1 63.804786820865836,4.994915288957908" fill="none" stroke-width="10" transform="rotate(260)"></path><path d="M 63.804786820865836,-4.994915288957908 A 64,64 0,0,1 63.804786820865836,4.994915288957908" fill="none" stroke-width="10" transform="rotate(280)"></path><path d="M 63.804786820865836,-4.994915288957908 A 64,64 0,0,1 63.804786820865836,4.994915288957908" fill="none" stroke-width="10" transform="rotate(300)"></path><path d="M 63.804786820865836,-4.994915288957908 A 64,64 0,0,1 63.804786820865836,4.994915288957908" fill="none" stroke-width="10" transform="rotate(320)"></path><path d="M 63.804786820865836,-4.994915288957908 A 64,64 0,0,1 63.804786820865836,4.994915288957908" fill="none" stroke-width="10" transform="rotate(340)"></path><g transform="rotate(-40)"><line fill="none" stroke-width="3" transform="translate(0, -2.5)" x1="32" x2="64" y1="0" y2="0"></line><line fill="none" stroke-width="3" transform="translate(0, 2.5)" x1="32" x2="64" y1="0" y2="0"></line><line fill="none" stroke-width="3" x1="32" x2="60.14032773029814" y1="0" y2="21.889289172842798"></line><line fill="none" stroke-width="3" x1="-15.999999999999993" x2="-31.999999999999986" y1="27.71281292110204" y2="55.42562584220408"></line><line fill="none" stroke-width="3" x1="-15.999999999999993" x2="-49.026844359614586" y1="27.71281292110204" y2="41.138407019938526"></line><line fill="none" stroke-width="3" x1="-30.070163865149066" x2="-60.14032773029813" y1="10.944644586421404" y2="21.88928917284281"></line><line fill="none" stroke-width="3" x1="-30.070163865149066" x2="-64" y1="10.944644586421404" y2="7.83773951454306e-15"></line><line fill="none" stroke-width="3" x1="-16.000000000000014" x2="-32.00000000000003" y1="-27.71281292110203" y2="-55.42562584220406"></line><line fill="none" stroke-width="3" x1="-16.000000000000014" x2="-11.113483370683541" y1="-27.71281292110203" y2="-63.02769619278131"></line><line fill="none" stroke-width="3" x1="24.51342217980729" x2="32.00000000000001" y1="-20.569203509969267" y2="-55.42562584220407"></line><line fill="none" stroke-width="3" x1="24.51342217980729" x2="60.14032773029812" y1="-20.569203509969267" y2="-21.889289172842844"></line></g><circle cx="0" cy="0" fill="none" r="101" stroke-width="3"></circle><circle cx="0" cy="0" fill="none" r="91" stroke-width="3"></circle><path d="M 95.86982109839775,-4.997739745245861 A 96,96 0,0,1 95.86982109839775,4.997739745245861" fill="none" stroke-width="10" transform="rotate(0)"></path><path d="M 95.86982109839775,-4.997739745245861 A 96,96 0,0,1 95.86982109839775,4.997739745245861" fill="none" stroke-width="10" transform="rotate(13.333333333333334)"></path><path d="M 95.86982109839775,-4.997739745245861 A 96,96 0,0,1 95.86982109839775,4.997739745245861" fill="none" stroke-width="10" transform="rotate(26.666666666666668)"></path><path d="M 95.86982109839775,-4.997739745245861 A 96,96 0,0,1 95.86982109839775,4.997739745245861" fill="none" stroke-width="10" transform="rotate(40)"></path><path d="M 95.86982109839775,-4.997739745245861 A 96,96 0,0,1 95.86982109839775,4.997739745245861" fill="none" stroke-width="10" transform="rotate(53.333333333333336)"></path><path d="M 95.86982109839775,-4.997739745245861 A 96,96 0,0,1 95.86982109839775,4.997739745245861" fill="none" stroke-width="10" transform="rotate(66.66666666666667)"></path><path d="M 95.86982109839775,-4.997739745245861 A 96,96 0,0,1 95.86982109839775,4.997739745245861" fill="none" stroke-width="10" transform="rotate(80)"></path><path d="M 95.86982109839775,-4.997739745245861 A 96,96 0,0,1 95.86982109839775,4.997739745245861" fill="none" stroke-width="10" transform="rotate(93.33333333333334)"></path><path d="M 95.86982109839775,-4.997739745245861 A 96,96 0,0,1 95.86982109839775,4.997739745245861" fill="none" stroke-width="10" transform="rotate(106.66666666666667)"></path><path d="M 95.86982109839775,-4.997739745245861 A 96,96 0,0,1 95.86982109839775,4.997739745245861" fill="none" stroke-width="10" transform="rotate(120)"></path><path d="M 95.86982109839775,-4.997739745245861 A 96,96 0,0,1 95.86982109839775,4.997739745245861" fill="none" stroke-width="10" transform="rotate(133.33333333333334)"></path><path d="M 95.86982109839775,-4.997739745245861 A 96,96 0,0,1 95.86982109839775,4.997739745245861" fill="none" stroke-width="10" transform="rotate(146.66666666666669)"></path><path d="M 95.86982109839775,-4.997739745245861 A 96,96 0,0,1 95.86982109839775,4.997739745245861" fill="none" stroke-width="10" transform="rotate(160)"></path><path d="M 95.86982109839775,-4.997739745245861 A 96,96 0,0,1 95.86982109839775,4.997739745245861" fill="none" stroke-width="10" transform="rotate(173.33333333333334)"></path><path d="M 95.86982109839775,-4.997739745245861 A 96,96 0,0,1 95.86982109839775,4.997739745245861" fill="none" stroke-width="10" transform="rotate(186.66666666666669)"></path><path d="M 95.86982109839775,-4.997739745245861 A 96,96 0,0,1 95.86982109839775,4.997739745245861" fill="none" stroke-width="10" transform="rotate(200)"></path><path d="M 95.86982109839775,-4.997739745245861 A 96,96 0,0,1 95.86982109839775,4.997739745245861" fill="none" stroke-width="10" transform="rotate(213.33333333333334)"></path><path d="M 95.86982109839775,-4.997739745245861 A 96,96 0,0,1 95.86982109839775,4.997739745245861" fill="none" stroke-width="10" transform="rotate(226.66666666666669)"></path><path d="M 95.86982109839775,-4.997739745245861 A 96,96 0,0,1 95.86982109839775,4.997739745245861" fill="none" stroke-width="10" transform="rotate(240)"></path><path d="M 95.86982109839775,-4.997739745245861 A 96,96 0,0,1 95.86982109839775,4.997739745245861" fill="none" stroke-width="10" transform="rotate(253.33333333333334)"></path><path d="M 95.86982109839775,-4.997739745245861 A 96,96 0,0,1 95.86982109839775,4.997739745245861" fill="none" stroke-width="10" transform="rotate(266.6666666666667)"></path><path d="M 95.86982109839775,-4.997739745245861 A 96,96 0,0,1 95.86982109839775,4.997739745245861" fill="none" stroke-width="10" transform="rotate(280)"></path><path d="M 95.86982109839775,-4.997739745245861 A 96,96 0,0,1 95.86982109839775,4.997739745245861" fill="none" stroke-width="10" transform="rotate(293.33333333333337)"></path><path d="M 95.86982109839775,-4.997739745245861 A 96,96 0,0,1 95.86982109839775,4.997739745245861" fill="none" stroke-width="10" transform="rotate(306.6666666666667)"></path><path d="M 95.86982109839775,-4.997739745245861 A 96,96 0,0,1 95.86982109839775,4.997739745245861" fill="none" stroke-width="10" transform="rotate(320)"></path><path d="M 95.86982109839775,-4.997739745245861 A 96,96 0,0,1 95.86982109839775,4.997739745245861" fill="none" stroke-width="10" transform="rotate(333.33333333333337)"></path><path d="M 95.86982109839775,-4.997739745245861 A 96,96 0,0,1 95.86982109839775,4.997739745245861" fill="none" stroke-width="10" transform="rotate(346.6666666666667)"></path><g transform="rotate(-80)"><line fill="none" stroke-width="3" transform="translate(0, -2.5)" x1="64" x2="96" y1="0" y2="0"></line><line fill="none" stroke-width="3" transform="translate(0, 2.5)" x1="64" x2="96" y1="0" y2="0"></line><line fill="none" stroke-width="3" x1="64" x2="93.41230757566308" y1="0" y2="22.139123591274256"></line><line fill="none" stroke-width="3" x1="60.14032773029814" x2="93.41230757566308" y1="21.889289172842798" y2="22.139123591274256"></line><line fill="none" stroke-width="3" x1="60.14032773029814" x2="85.78873347104758" y1="21.889289172842798" y2="43.084721299244364"></line><line fill="none" stroke-width="3" x1="49.02684435961459" x2="85.78873347104758" y1="41.13840701993851" y2="43.084721299244364"></line><line fill="none" stroke-width="3" x1="49.02684435961459" x2="57.32722480346747" y1="41.13840701993851" y2="77.0038265044842"></line><line fill="none" stroke-width="3" x1="32.00000000000001" x2="38.023657539759064" y1="55.42562584220407" y2="88.1487462605063"></line><line fill="none" stroke-width="3" x1="11.113483370683547" x2="38.023657539759064" y1="63.02769619278131" y2="88.1487462605063"></line><line fill="none" stroke-width="3" x1="11.113483370683547" x2="16.67022505602532" y1="63.02769619278131" y2="94.54154428917197"></line><line fill="none" stroke-width="3" x1="-11.11348337068354" x2="-5.581903575405674" y1="63.02769619278131" y2="95.83758319404174"></line><line fill="none" stroke-width="3" x1="-11.11348337068354" x2="-27.53311034026466" y1="63.02769619278131" y2="91.96699318228693"></line><line fill="none" stroke-width="3" x1="-31.999999999999986" x2="-27.53311034026466" y1="55.42562584220408" y2="91.96699318228693"></line><line fill="none" stroke-width="3" x1="-31.999999999999986" x2="-47.99999999999998" y1="55.42562584220408" y2="83.13843876330611"></line><line fill="none" stroke-width="3" x1="-49.026844359614586" x2="-65.87919723539841" y1="41.138407019938526" y2="69.82786959101269"></line><line fill="none" stroke-width="3" x1="-49.026844359614586" x2="-80.20682989564187" y1="41.138407019938526" y2="52.7528618947974"></line><line fill="none" stroke-width="3" x1="-60.14032773029813" x2="-80.20682989564187" y1="21.88928917284281" y2="52.7528618947974"></line><line fill="none" stroke-width="3" x1="-60.14032773029813" x2="-90.2104915954472" y1="21.88928917284281" y2="32.83393375926421"></line><line fill="none" stroke-width="3" x1="-64" x2="-95.35088234322653" y1="7.83773951454306e-15" y2="11.144919756022114"></line><line fill="none" stroke-width="3" x1="-60.14032773029814" x2="-90.21049159544721" y1="-21.889289172842794" y2="-32.83393375926419"></line><line fill="none" stroke-width="3" x1="-60.14032773029814" x2="-80.2068298956419" y1="-21.889289172842794" y2="-52.75286189479738"></line><line fill="none" stroke-width="3" x1="-49.0268443596146" x2="-80.2068298956419" y1="-41.13840701993851" y2="-52.75286189479738"></line><line fill="none" stroke-width="3" x1="-49.0268443596146" x2="-65.87919723539842" y1="-41.13840701993851" y2="-69.82786959101267"></line><line fill="none" stroke-width="3" x1="-32.00000000000003" x2="-65.87919723539842" y1="-55.42562584220406" y2="-69.82786959101267"></line><line fill="none" stroke-width="3" x1="-32.00000000000003" x2="-48.00000000000004" y1="-55.42562584220406" y2="-83.1384387633061"></line><line fill="none" stroke-width="3" x1="-32.00000000000003" x2="-27.533110340264702" y1="-55.42562584220406" y2="-91.96699318228693"></line><line fill="none" stroke-width="3" x1="11.113483370683518" x2="-5.581903575405719" y1="-63.02769619278132" y2="-95.83758319404174"></line><line fill="none" stroke-width="3" x1="11.113483370683518" x2="38.02365753975903" y1="-63.02769619278132" y2="-88.14874626050633"></line><line fill="none" stroke-width="3" x1="32.00000000000001" x2="38.02365753975903" y1="-55.42562584220407" y2="-88.14874626050633"></line><line fill="none" stroke-width="3" x1="49.02684435961458" x2="57.327224803467445" y1="-41.13840701993853" y2="-77.00382650448422"></line><line fill="none" stroke-width="3" x1="49.02684435961458" x2="73.54026653942186" y1="-41.13840701993853" y2="-61.7076105299078"></line><line fill="none" stroke-width="3" x1="60.14032773029812" x2="85.78873347104756" y1="-21.889289172842844" y2="-43.08472129924439"></line><line fill="none" stroke-width="3" x1="60.14032773029812" x2="93.41230757566308" y1="-21.889289172842844" y2="-22.139123591274284"></line></g><circle cx="0" cy="0" fill="none" r="133" stroke-width="3"></circle><circle cx="0" cy="0" fill="none" r="123" stroke-width="3"></circle><path d="M 127.90235616700275,-4.998728531254035 A 128,128 0,0,1 127.90235616700275,4.998728531254035" fill="none" stroke-width="10" transform="rotate(0)"></path><path d="M 127.90235616700275,-4.998728531254035 A 128,128 0,0,1 127.90235616700275,4.998728531254035" fill="none" stroke-width="10" transform="rotate(10)"></path><path d="M 127.90235616700275,-4.998728531254035 A 128,128 0,0,1 127.90235616700275,4.998728531254035" fill="none" stroke-width="10" transform="rotate(20)"></path><path d="M 127.90235616700275,-4.998728531254035 A 128,128 0,0,1 127.90235616700275,4.998728531254035" fill="none" stroke-width="10" transform="rotate(30)"></path><path d="M 127.90235616700275,-4.998728531254035 A 128,128 0,0,1 127.90235616700275,4.998728531254035" fill="none" stroke-width="10" transform="rotate(40)"></path><path d="M 127.90235616700275,-4.998728531254035 A 128,128 0,0,1 127.90235616700275,4.998728531254035" fill="none" stroke-width="10" transform="rotate(50)"></path><path d="M 127.90235616700275,-4.998728531254035 A 128,128 0,0,1 127.90235616700275,4.998728531254035" fill="none" stroke-width="10" transform="rotate(60)"></path><path d="M 127.90235616700275,-4.998728531254035 A 128,128 0,0,1 127.90235616700275,4.998728531254035" fill="none" stroke-width="10" transform="rotate(70)"></path><path d="M 127.90235616700275,-4.998728531254035 A 128,128 0,0,1 127.90235616700275,4.998728531254035" fill="none" stroke-width="10" transform="rotate(80)"></path><path d="M 127.90235616700275,-4.998728531254035 A 128,128 0,0,1 127.90235616700275,4.998728531254035" fill="none" stroke-width="10" transform="rotate(90)"></path><path d="M 127.90235616700275,-4.998728531254035 A 128,128 0,0,1 127.90235616700275,4.998728531254035" fill="none" stroke-width="10" transform="rotate(100)"></path><path d="M 127.90235616700275,-4.998728531254035 A 128,128 0,0,1 127.90235616700275,4.998728531254035" fill="none" stroke-width="10" transform="rotate(110)"></path><path d="M 127.90235616700275,-4.998728531254035 A 128,128 0,0,1 127.90235616700275,4.998728531254035" fill="none" stroke-width="10" transform="rotate(120)"></path><path d="M 127.90235616700275,-4.998728531254035 A 128,128 0,0,1 127.90235616700275,4.998728531254035" fill="none" stroke-width="10" transform="rotate(130)"></path><path d="M 127.90235616700275,-4.998728531254035 A 128,128 0,0,1 127.90235616700275,4.998728531254035" fill="none" stroke-width="10" transform="rotate(140)"></path><path d="M 127.90235616700275,-4.998728531254035 A 128,128 0,0,1 127.90235616700275,4.998728531254035" fill="none" stroke-width="10" transform="rotate(150)"></path><path d="M 127.90235616700275,-4.998728531254035 A 128,128 0,0,1 127.90235616700275,4.998728531254035" fill="none" stroke-width="10" transform="rotate(160)"></path><path d="M 127.90235616700275,-4.998728531254035 A 128,128 0,0,1 127.90235616700275,4.998728531254035" fill="none" stroke-width="10" transform="rotate(170)"></path><path d="M 127.90235616700275,-4.998728531254035 A 128,128 0,0,1 127.90235616700275,4.998728531254035" fill="none" stroke-width="10" transform="rotate(180)"></path><path d="M 127.90235616700275,-4.998728531254035 A 128,128 0,0,1 127.90235616700275,4.998728531254035" fill="none" stroke-width="10" transform="rotate(190)"></path><path d="M 127.90235616700275,-4.998728531254035 A 128,128 0,0,1 127.90235616700275,4.998728531254035" fill="none" stroke-width="10" transform="rotate(200)"></path><path d="M 127.90235616700275,-4.998728531254035 A 128,128 0,0,1 127.90235616700275,4.998728531254035" fill="none" stroke-width="10" transform="rotate(210)"></path><path d="M 127.90235616700275,-4.998728531254035 A 128,128 0,0,1 127.90235616700275,4.998728531254035" fill="none" stroke-width="10" transform="rotate(220)"></path><path d="M 127.90235616700275,-4.998728531254035 A 128,128 0,0,1 127.90235616700275,4.998728531254035" fill="none" stroke-width="10" transform="rotate(230)"></path><path d="M 127.90235616700275,-4.998728531254035 A 128,128 0,0,1 127.90235616700275,4.998728531254035" fill="none" stroke-width="10" transform="rotate(240)"></path><path d="M 127.90235616700275,-4.998728531254035 A 128,128 0,0,1 127.90235616700275,4.998728531254035" fill="none" stroke-width="10" transform="rotate(250)"></path><path d="M 127.90235616700275,-4.998728531254035 A 128,128 0,0,1 127.90235616700275,4.998728531254035" fill="none" stroke-width="10" transform="rotate(260)"></path><path d="M 127.90235616700275,-4.998728531254035 A 128,128 0,0,1 127.90235616700275,4.998728531254035" fill="none" stroke-width="10" transform="rotate(270)"></path><path d="M 127.90235616700275,-4.998728531254035 A 128,128 0,0,1 127.90235616700275,4.998728531254035" fill="none" stroke-width="10" transform="rotate(280)"></path><path d="M 127.90235616700275,-4.998728531254035 A 128,128 0,0,1 127.90235616700275,4.998728531254035" fill="none" stroke-width="10" transform="rotate(290)"></path><path d="M 127.90235616700275,-4.998728531254035 A 128,128 0,0,1 127.90235616700275,4.998728531254035" fill="none" stroke-width="10" transform="rotate(300)"></path><path d="M 127.90235616700275,-4.998728531254035 A 128,128 0,0,1 127.90235616700275,4.998728531254035" fill="none" stroke-width="10" transform="rotate(310)"></path><path d="M 127.90235616700275,-4.998728531254035 A 128,128 0,0,1 127.90235616700275,4.998728531254035" fill="none" stroke-width="10" transform="rotate(320)"></path><path d="M 127.90235616700275,-4.998728531254035 A 128,128 0,0,1 127.90235616700275,4.998728531254035" fill="none" stroke-width="10" transform="rotate(330)"></path><path d="M 127.90235616700275,-4.998728531254035 A 128,128 0,0,1 127.90235616700275,4.998728531254035" fill="none" stroke-width="10" transform="rotate(340)"></path><path d="M 127.90235616700275,-4.998728531254035 A 128,128 0,0,1 127.90235616700275,4.998728531254035" fill="none" stroke-width="10" transform="rotate(350)"></path><g transform="rotate(-120)"><line fill="none" stroke-width="3" transform="translate(0, -2.5)" x1="96" x2="128" y1="0" y2="0"></line><line fill="none" stroke-width="3" transform="translate(0, 2.5)" x1="96" x2="128" y1="0" y2="0"></line><line fill="none" stroke-width="3" x1="96" x2="126.05539238556263" y1="0" y2="22.226966741367082"></line><line fill="none" stroke-width="3" x1="93.41230757566308" x2="120.28065546059628" y1="22.139123591274256" y2="43.778578345685595"></line><line fill="none" stroke-width="3" x1="85.78873347104758" x2="110.85125168440815" y1="43.084721299244364" y2="63.99999999999999"></line><line fill="none" stroke-width="3" x1="73.54026653942189" x2="82.27681403987704" y1="61.70761052990777" y2="98.05368871922919"></line><line fill="none" stroke-width="3" x1="57.32722480346747" x2="82.27681403987704" y1="77.0038265044842" y2="98.05368871922919"></line><line fill="none" stroke-width="3" x1="57.32722480346747" x2="64.00000000000001" y1="77.0038265044842" y2="110.85125168440814"></line><line fill="none" stroke-width="3" x1="38.023657539759064" x2="64.00000000000001" y1="88.1487462605063" y2="110.85125168440814"></line><line fill="none" stroke-width="3" x1="38.023657539759064" x2="43.77857834568561" y1="88.1487462605063" y2="120.28065546059626"></line><line fill="none" stroke-width="3" x1="16.67022505602532" x2="22.226966741367093" y1="94.54154428917197" y2="126.05539238556263"></line><line fill="none" stroke-width="3" x1="-5.581903575405674" x2="7.83773951454306e-15" y1="95.83758319404174" y2="128"></line><line fill="none" stroke-width="3" x1="-27.53311034026466" x2="-22.22696674136708" y1="91.96699318228693" y2="126.05539238556263"></line><line fill="none" stroke-width="3" x1="-27.53311034026466" x2="-43.778578345685595" y1="91.96699318228693" y2="120.28065546059628"></line><line fill="none" stroke-width="3" x1="-47.99999999999998" x2="-82.27681403987704" y1="83.13843876330611" y2="98.05368871922919"></line><line fill="none" stroke-width="3" x1="-65.87919723539841" x2="-98.05368871922917" y1="69.82786959101269" y2="82.27681403987705"></line><line fill="none" stroke-width="3" x1="-80.20682989564187" x2="-98.05368871922917" y1="52.7528618947974" y2="82.27681403987705"></line><line fill="none" stroke-width="3" x1="-90.2104915954472" x2="-110.85125168440815" y1="32.83393375926421" y2="63.99999999999999"></line><line fill="none" stroke-width="3" x1="-90.2104915954472" x2="-120.28065546059626" y1="32.83393375926421" y2="43.77857834568562"></line><line fill="none" stroke-width="3" x1="-95.35088234322653" x2="-128" y1="11.144919756022114" y2="1.567547902908612e-14"></line><line fill="none" stroke-width="3" x1="-95.35088234322653" x2="-128" y1="-11.144919756022091" y2="1.567547902908612e-14"></line><line fill="none" stroke-width="3" x1="-95.35088234322653" x2="-126.05539238556264" y1="-11.144919756022091" y2="-22.226966741367043"></line><line fill="none" stroke-width="3" x1="-90.21049159544721" x2="-126.05539238556264" y1="-32.83393375926419" y2="-22.226966741367043"></line><line fill="none" stroke-width="3" x1="-90.21049159544721" x2="-120.28065546059628" y1="-32.83393375926419" y2="-43.77857834568559"></line><line fill="none" stroke-width="3" x1="-90.21049159544721" x2="-110.85125168440817" y1="-32.83393375926419" y2="-63.999999999999964"></line><line fill="none" stroke-width="3" x1="-80.2068298956419" x2="-110.85125168440817" y1="-52.75286189479738" y2="-63.999999999999964"></line><line fill="none" stroke-width="3" x1="-80.2068298956419" x2="-98.0536887192292" y1="-52.75286189479738" y2="-82.27681403987702"></line><line fill="none" stroke-width="3" x1="-65.87919723539842" x2="-82.27681403987705" y1="-69.82786959101267" y2="-98.05368871922917"></line><line fill="none" stroke-width="3" x1="-48.00000000000004" x2="-64.00000000000006" y1="-83.1384387633061" y2="-110.85125168440813"></line><line fill="none" stroke-width="3" x1="-48.00000000000004" x2="-43.77857834568568" y1="-83.1384387633061" y2="-120.28065546059625"></line><line fill="none" stroke-width="3" x1="-27.533110340264702" x2="-22.226966741367082" y1="-91.96699318228693" y2="-126.05539238556263"></line><line fill="none" stroke-width="3" x1="-5.581903575405719" x2="-22.226966741367082" y1="-95.83758319404174" y2="-126.05539238556263"></line><line fill="none" stroke-width="3" x1="16.670225056025277" x2="-2.351321854362918e-14" y1="-94.54154428917198" y2="-128"></line><line fill="none" stroke-width="3" x1="16.670225056025277" x2="22.226966741367036" y1="-94.54154428917198" y2="-126.05539238556264"></line><line fill="none" stroke-width="3" x1="38.02365753975903" x2="43.778578345685524" y1="-88.14874626050633" y2="-120.2806554605963"></line><line fill="none" stroke-width="3" x1="57.327224803467445" x2="64.00000000000001" y1="-77.00382650448422" y2="-110.85125168440814"></line><line fill="none" stroke-width="3" x1="73.54026653942186" x2="98.05368871922916" y1="-61.7076105299078" y2="-82.27681403987707"></line><line fill="none" stroke-width="3" x1="73.54026653942186" x2="110.85125168440811" y1="-61.7076105299078" y2="-64.00000000000006"></line><line fill="none" stroke-width="3" x1="85.78873347104756" x2="110.85125168440811" y1="-43.08472129924439" y2="-64.00000000000006"></line><line fill="none" stroke-width="3" x1="85.78873347104756" x2="120.28065546059624" y1="-43.08472129924439" y2="-43.77857834568569"></line></g><circle cx="0" cy="0" fill="none" r="165" stroke-width="3"></circle><circle cx="0" cy="0" fill="none" r="155" stroke-width="3"></circle><path d="M 159.92188135762183,-4.9991862376521725 A 160,160 0,0,1 159.92188135762183,4.9991862376521725" fill="none" stroke-width="10" transform="rotate(0)"></path><path d="M 159.92188135762183,-4.9991862376521725 A 160,160 0,0,1 159.92188135762183,4.9991862376521725" fill="none" stroke-width="10" transform="rotate(8)"></path><path d="M 159.92188135762183,-4.9991862376521725 A 160,160 0,0,1 159.92188135762183,4.9991862376521725" fill="none" stroke-width="10" transform="rotate(16)"></path><path d="M 159.92188135762183,-4.9991862376521725 A 160,160 0,0,1 159.92188135762183,4.9991862376521725" fill="none" stroke-width="10" transform="rotate(24)"></path><path d="M 159.92188135762183,-4.9991862376521725 A 160,160 0,0,1 159.92188135762183,4.9991862376521725" fill="none" stroke-width="10" transform="rotate(32)"></path><path d="M 159.92188135762183,-4.9991862376521725 A 160,160 0,0,1 159.92188135762183,4.9991862376521725" fill="none" stroke-width="10" transform="rotate(40)"></path><path d="M 159.92188135762183,-4.9991862376521725 A 160,160 0,0,1 159.92188135762183,4.9991862376521725" fill="none" stroke-width="10" transform="rotate(48)"></path><path d="M 159.92188135762183,-4.9991862376521725 A 160,160 0,0,1 159.92188135762183,4.9991862376521725" fill="none" stroke-width="10" transform="rotate(56)"></path><path d="M 159.92188135762183,-4.9991862376521725 A 160,160 0,0,1 159.92188135762183,4.9991862376521725" fill="none" stroke-width="10" transform="rotate(64)"></path><path d="M 159.92188135762183,-4.9991862376521725 A 160,160 0,0,1 159.92188135762183,4.9991862376521725" fill="none" stroke-width="10" transform="rotate(72)"></path><path d="M 159.92188135762183,-4.9991862376521725 A 160,160 0,0,1 159.92188135762183,4.9991862376521725" fill="none" stroke-width="10" transform="rotate(80)"></path><path d="M 159.92188135762183,-4.9991862376521725 A 160,160 0,0,1 159.92188135762183,4.9991862376521725" fill="none" stroke-width="10" transform="rotate(88)"></path><path d="M 159.92188135762183,-4.9991862376521725 A 160,160 0,0,1 159.92188135762183,4.9991862376521725" fill="none" stroke-width="10" transform="rotate(96)"></path><path d="M 159.92188135762183,-4.9991862376521725 A 160,160 0,0,1 159.92188135762183,4.9991862376521725" fill="none" stroke-width="10" transform="rotate(104)"></path><path d="M 159.92188135762183,-4.9991862376521725 A 160,160 0,0,1 159.92188135762183,4.9991862376521725" fill="none" stroke-width="10" transform="rotate(112)"></path><path d="M 159.92188135762183,-4.9991862376521725 A 160,160 0,0,1 159.92188135762183,4.9991862376521725" fill="none" stroke-width="10" transform="rotate(120)"></path><path d="M 159.92188135762183,-4.9991862376521725 A 160,160 0,0,1 159.92188135762183,4.9991862376521725" fill="none" stroke-width="10" transform="rotate(128)"></path><path d="M 159.92188135762183,-4.9991862376521725 A 160,160 0,0,1 159.92188135762183,4.9991862376521725" fill="none" stroke-width="10" transform="rotate(136)"></path><path d="M 159.92188135762183,-4.9991862376521725 A 160,160 0,0,1 159.92188135762183,4.9991862376521725" fill="none" stroke-width="10" transform="rotate(144)"></path><path d="M 159.92188135762183,-4.9991862376521725 A 160,160 0,0,1 159.92188135762183,4.9991862376521725" fill="none" stroke-width="10" transform="rotate(152)"></path><path d="M 159.92188135762183,-4.9991862376521725 A 160,160 0,0,1 159.92188135762183,4.9991862376521725" fill="none" stroke-width="10" transform="rotate(160)"></path><path d="M 159.92188135762183,-4.9991862376521725 A 160,160 0,0,1 159.92188135762183,4.9991862376521725" fill="none" stroke-width="10" transform="rotate(168)"></path><path d="M 159.92188135762183,-4.9991862376521725 A 160,160 0,0,1 159.92188135762183,4.9991862376521725" fill="none" stroke-width="10" transform="rotate(176)"></path><path d="M 159.92188135762183,-4.9991862376521725 A 160,160 0,0,1 159.92188135762183,4.9991862376521725" fill="none" stroke-width="10" transform="rotate(184)"></path><path d="M 159.92188135762183,-4.9991862376521725 A 160,160 0,0,1 159.92188135762183,4.9991862376521725" fill="none" stroke-width="10" transform="rotate(192)"></path><path d="M 159.92188135762183,-4.9991862376521725 A 160,160 0,0,1 159.92188135762183,4.9991862376521725" fill="none" stroke-width="10" transform="rotate(200)"></path><path d="M 159.92188135762183,-4.9991862376521725 A 160,160 0,0,1 159.92188135762183,4.9991862376521725" fill="none" stroke-width="10" transform="rotate(208)"></path><path d="M 159.92188135762183,-4.9991862376521725 A 160,160 0,0,1 159.92188135762183,4.9991862376521725" fill="none" stroke-width="10" transform="rotate(216)"></path><path d="M 159.92188135762183,-4.9991862376521725 A 160,160 0,0,1 159.92188135762183,4.9991862376521725" fill="none" stroke-width="10" transform="rotate(224)"></path><path d="M 159.92188135762183,-4.9991862376521725 A 160,160 0,0,1 159.92188135762183,4.9991862376521725" fill="none" stroke-width="10" transform="rotate(232)"></path><path d="M 159.92188135762183,-4.9991862376521725 A 160,160 0,0,1 159.92188135762183,4.9991862376521725" fill="none" stroke-width="10" transform="rotate(240)"></path><path d="M 159.92188135762183,-4.9991862376521725 A 160,160 0,0,1 159.92188135762183,4.9991862376521725" fill="none" stroke-width="10" transform="rotate(248)"></path><path d="M 159.92188135762183,-4.9991862376521725 A 160,160 0,0,1 159.92188135762183,4.9991862376521725" fill="none" stroke-width="10" transform="rotate(256)"></path><path d="M 159.92188135762183,-4.9991862376521725 A 160,160 0,0,1 159.92188135762183,4.9991862376521725" fill="none" stroke-width="10" transform="rotate(264)"></path><path d="M 159.92188135762183,-4.9991862376521725 A 160,160 0,0,1 159.92188135762183,4.9991862376521725" fill="none" stroke-width="10" transform="rotate(272)"></path><path d="M 159.92188135762183,-4.9991862376521725 A 160,160 0,0,1 159.92188135762183,4.9991862376521725" fill="none" stroke-width="10" transform="rotate(280)"></path><path d="M 159.92188135762183,-4.9991862376521725 A 160,160 0,0,1 159.92188135762183,4.9991862376521725" fill="none" stroke-width="10" transform="rotate(288)"></path><path d="M 159.92188135762183,-4.9991862376521725 A 160,160 0,0,1 159.92188135762183,4.9991862376521725" fill="none" stroke-width="10" transform="rotate(296)"></path><path d="M 159.92188135762183,-4.9991862376521725 A 160,160 0,0,1 159.92188135762183,4.9991862376521725" fill="none" stroke-width="10" transform="rotate(304)"></path><path d="M 159.92188135762183,-4.9991862376521725 A 160,160 0,0,1 159.92188135762183,4.9991862376521725" fill="none" stroke-width="10" transform="rotate(312)"></path><path d="M 159.92188135762183,-4.9991862376521725 A 160,160 0,0,1 159.92188135762183,4.9991862376521725" fill="none" stroke-width="10" transform="rotate(320)"></path><path d="M 159.92188135762183,-4.9991862376521725 A 160,160 0,0,1 159.92188135762183,4.9991862376521725" fill="none" stroke-width="10" transform="rotate(328)"></path><path d="M 159.92188135762183,-4.9991862376521725 A 160,160 0,0,1 159.92188135762183,4.9991862376521725" fill="none" stroke-width="10" transform="rotate(336)"></path><path d="M 159.92188135762183,-4.9991862376521725 A 160,160 0,0,1 159.92188135762183,4.9991862376521725" fill="none" stroke-width="10" transform="rotate(344)"></path><path d="M 159.92188135762183,-4.9991862376521725 A 160,160 0,0,1 159.92188135762183,4.9991862376521725" fill="none" stroke-width="10" transform="rotate(352)"></path><g transform="rotate(-160)"><line fill="none" stroke-width="3" transform="translate(0, -2.5)" x1="128" x2="160" y1="0" y2="0"></line><line fill="none" stroke-width="3" transform="translate(0, 2.5)" x1="128" x2="160" y1="0" y2="0"></line><line fill="none" stroke-width="3" x1="128" x2="158.44289099865125" y1="0" y2="22.26769615361047"></line><line fill="none" stroke-width="3" x1="126.05539238556263" x2="158.44289099865125" y1="22.226966741367082" y2="22.26769615361047"></line><line fill="none" stroke-width="3" x1="120.28065546059628" x2="153.80187135013102" y1="43.778578345685595" y2="44.101976930719864"></line><line fill="none" stroke-width="3" x1="110.85125168440815" x2="146.16727322281614" y1="63.99999999999999" y2="65.07786289212804"></line><line fill="none" stroke-width="3" x1="110.85125168440815" x2="135.68769538502815" y1="63.99999999999999" y2="84.78708227731278"></line><line fill="none" stroke-width="3" x1="98.05368871922919" x2="122.56711089903648" y1="82.27681403987702" y2="102.84601754984628"></line><line fill="none" stroke-width="3" x1="98.05368871922919" x2="107.06089701741732" y1="82.27681403987702" y2="118.90317207638307"></line><line fill="none" stroke-width="3" x1="82.27681403987704" x2="89.47086455531948" y1="98.05368871922919" y2="132.64601160880667"></line><line fill="none" stroke-width="3" x1="64.00000000000001" x2="89.47086455531948" y1="110.85125168440814" y2="132.64601160880667"></line><line fill="none" stroke-width="3" x1="43.77857834568561" x2="70.1393834862524" y1="120.28065546059626" y2="143.80704740786672"></line><line fill="none" stroke-width="3" x1="22.226966741367093" x2="49.44271909999159" y1="126.05539238556263" y2="152.16904260722455"></line><line fill="none" stroke-width="3" x1="7.83773951454306e-15" x2="5.583919472400173" y1="128" y2="159.9025323230553"></line><line fill="none" stroke-width="3" x1="7.83773951454306e-15" x2="-16.724554122824568" y1="128" y2="159.12350325892373"></line><line fill="none" stroke-width="3" x1="-22.22696674136708" x2="-38.70750329594684" y1="126.05539238556263" y2="155.24731620415943"></line><line fill="none" stroke-width="3" x1="-43.778578345685595" x2="-59.93705494654593" y1="120.28065546059628" y2="148.349416730686"></line><line fill="none" stroke-width="3" x1="-63.99999999999997" x2="-59.93705494654593" y1="110.85125168440815" y2="148.349416730686"></line><line fill="none" stroke-width="3" x1="-63.99999999999997" x2="-79.99999999999997" y1="110.85125168440815" y2="138.5640646055102"></line><line fill="none" stroke-width="3" x1="-63.99999999999997" x2="-98.50583605210532" y1="110.85125168440815" y2="126.08172057707552"></line><line fill="none" stroke-width="3" x1="-82.27681403987704" x2="-115.0943680541842" y1="98.05368871922919" y2="111.14533927343955"></line><line fill="none" stroke-width="3" x1="-98.05368871922917" x2="-115.0943680541842" y1="82.27681403987705" y2="111.14533927343955"></line><line fill="none" stroke-width="3" x1="-110.85125168440815" x2="-129.44271909999156" y1="63.99999999999999" y2="94.04564036679572"></line><line fill="none" stroke-width="3" x1="-110.85125168440815" x2="-141.27161485742832" y1="63.99999999999999" y2="75.1154500457425"></line><line fill="none" stroke-width="3" x1="-120.28065546059626" x2="-150.35081932574533" y1="43.77857834568562" y2="54.72322293210702"></line><line fill="none" stroke-width="3" x1="-120.28065546059626" x2="-156.5036161174089" y1="43.77857834568562" y2="33.26587053084149"></line><line fill="none" stroke-width="3" x1="-126.05539238556263" x2="-159.61024804157188" y1="22.226966741367132" y2="11.161035799060084"></line><line fill="none" stroke-width="3" x1="-128" x2="-159.61024804157188" y1="1.567547902908612e-14" y2="-11.161035799060045"></line><line fill="none" stroke-width="3" x1="-126.05539238556264" x2="-159.61024804157188" y1="-22.226966741367043" y2="-11.161035799060045"></line><line fill="none" stroke-width="3" x1="-126.05539238556264" x2="-156.50361611740888" y1="-22.226966741367043" y2="-33.265870530841525"></line><line fill="none" stroke-width="3" x1="-120.28065546059628" x2="-156.50361611740888" y1="-43.77857834568559" y2="-33.265870530841525"></line><line fill="none" stroke-width="3" x1="-120.28065546059628" x2="-150.35081932574536" y1="-43.77857834568559" y2="-54.723222932106985"></line><line fill="none" stroke-width="3" x1="-110.85125168440817" x2="-141.2716148574283" y1="-63.999999999999964" y2="-75.11545004574253"></line><line fill="none" stroke-width="3" x1="-110.85125168440817" x2="-129.4427190999916" y1="-63.999999999999964" y2="-94.04564036679568"></line><line fill="none" stroke-width="3" x1="-98.0536887192292" x2="-129.4427190999916" y1="-82.27681403987702" y2="-94.04564036679568"></line><line fill="none" stroke-width="3" x1="-98.0536887192292" x2="-115.09436805418417" y1="-82.27681403987702" y2="-111.14533927343957"></line><line fill="none" stroke-width="3" x1="-82.27681403987705" x2="-98.5058360521053" y1="-98.05368871922917" y2="-126.08172057707554"></line><line fill="none" stroke-width="3" x1="-64.00000000000006" x2="-80.00000000000007" y1="-110.85125168440813" y2="-138.56406460551017"></line><line fill="none" stroke-width="3" x1="-64.00000000000006" x2="-59.93705494654597" y1="-110.85125168440813" y2="-148.34941673068596"></line><line fill="none" stroke-width="3" x1="-43.77857834568568" x2="-38.70750329594684" y1="-120.28065546059625" y2="-155.24731620415943"></line><line fill="none" stroke-width="3" x1="-22.226966741367082" x2="-38.70750329594684" y1="-126.05539238556263" y2="-155.24731620415943"></line><line fill="none" stroke-width="3" x1="-2.351321854362918e-14" x2="-16.724554122824536" y1="-128" y2="-159.12350325892373"></line><line fill="none" stroke-width="3" x1="-2.351321854362918e-14" x2="5.583919472400205" y1="-128" y2="-159.9025323230553"></line><line fill="none" stroke-width="3" x1="22.226966741367036" x2="27.783708426708795" y1="-126.05539238556264" y2="-157.5692404819533"></line><line fill="none" stroke-width="3" x1="43.778578345685524" x2="49.44271909999156" y1="-120.2806554605963" y2="-152.16904260722458"></line><line fill="none" stroke-width="3" x1="64.00000000000001" x2="70.13938348625238" y1="-110.85125168440814" y2="-143.80704740786672"></line><line fill="none" stroke-width="3" x1="64.00000000000001" x2="89.47086455531952" y1="-110.85125168440814" y2="-132.64601160880665"></line><line fill="none" stroke-width="3" x1="82.27681403987702" x2="89.47086455531952" y1="-98.0536887192292" y2="-132.64601160880665"></line><line fill="none" stroke-width="3" x1="98.05368871922916" x2="107.06089701741725" y1="-82.27681403987707" y2="-118.90317207638313"></line><line fill="none" stroke-width="3" x1="98.05368871922916" x2="135.68769538502812" y1="-82.27681403987707" y2="-84.7870822773128"></line><line fill="none" stroke-width="3" x1="110.85125168440811" x2="135.68769538502812" y1="-64.00000000000006" y2="-84.7870822773128"></line><line fill="none" stroke-width="3" x1="110.85125168440811" x2="146.16727322281616" y1="-64.00000000000006" y2="-65.07786289212802"></line><line fill="none" stroke-width="3" x1="120.28065546059624" x2="153.80187135013102" y1="-43.77857834568569" y2="-44.10197693071983"></line><line fill="none" stroke-width="3" x1="126.05539238556263" x2="158.44289099865125" y1="-22.22696674136709" y2="-22.26769615361054"></line></g></svg>
