<?xml version="1.0" encoding="UTF-8" standalone="no"?>
<svg
   xmlns:dc="http://purl.org/dc/elements/1.1/"
   xmlns:cc="http://creativecommons.org/ns#"
   xmlns:rdf="http://www.w3.org/1999/02/22-rdf-syntax-ns#"
   xmlns:svg="http://www.w3.org/2000/svg"
   xmlns="http://www.w3.org/2000/svg"
   xmlns:sodipodi="http://sodipodi.sourceforge.net/DTD/sodipodi-0.dtd"
   xmlns:inkscape="http://www.inkscape.org/namespaces/inkscape"
   height="100%"
   width="100%"
   fill="black"
   stroke="black"
   viewBox="-138 -138 276 276"
   version="1.1"
   id="svg2362"
   sodipodi:docname="mccode_m_prime.svg"
   inkscape:version="0.92.5 (2060ec1f9f, 2020-04-08)">
  <metadata
     id="metadata2368">
    <rdf:RDF>
      <cc:Work
         rdf:about="">
        <dc:format>image/svg+xml</dc:format>
        <dc:type
           rdf:resource="http://purl.org/dc/dcmitype/StillImage" />
        <dc:title></dc:title>
      </cc:Work>
    </rdf:RDF>
  </metadata>
  <defs
     id="defs2366" />
  <sodipodi:namedview
     pagecolor="#ffffff"
     bordercolor="#666666"
     borderopacity="1"
     objecttolerance="10"
     gridtolerance="10"
     guidetolerance="10"
     inkscape:pageopacity="0"
     inkscape:pageshadow="2"
     inkscape:window-width="3740"
     inkscape:window-height="2017"
     id="namedview2364"
     showgrid="false"
     inkscape:snap-bbox="true"
     inkscape:snap-bbox-midpoints="true"
     inkscape:zoom="4.8370203"
     inkscape:cx="82.113432"
     inkscape:cy="121.87691"
     inkscape:window-x="2188"
     inkscape:window-y="1751"
     inkscape:window-maximized="0"
     inkscape:current-layer="layer2" />
  <g
     inkscape:groupmode="layer"
     id="layer2"
     inkscape:label="Layer 1"
     style="display:inline">
    <circle
       style="fill:none;stroke-width:3"
       cx="0"
       cy="0"
       r="101"
       id="circle1816" />
    <circle
       style="fill:none;stroke-width:3"
       cx="0"
       cy="0"
       r="91"
       id="circle1818" />
    <path
       inkscape:connector-curvature="0"
       style="fill:none;stroke-width:10"
       d="m 95.86982,-4.99774 a 96,96 0 0 1 0,9.99548"
       id="path1820" />
    <path
       inkscape:connector-curvature="0"
       style="fill:none;stroke-width:10"
       d="m 94.43819,17.24607 a 96,96 0 0 1 -2.30511,9.72605"
       id="path1822" />
    <path
       inkscape:connector-curvature="0"
       style="fill:none;stroke-width:10"
       d="m 87.91538,38.56016 a 96,96 0 0 1 -4.48596,8.93228"
       id="path1824" />
    <path
       inkscape:connector-curvature="0"
       style="fill:none;stroke-width:10"
       d="m 76.65303,57.79544 a 96,96 0 0 1 -6.42497,7.65698"
       id="path1826" />
    <path
       inkscape:connector-curvature="0"
       style="fill:none;stroke-width:10"
       d="m 61.25829,73.91496 a 96,96 0 0 1 -8.0176,5.96889"
       id="path1828" />
    <path
       inkscape:connector-curvature="0"
       style="fill:none;stroke-width:10"
       d="m 42.5611,86.04971 a 96,96 0 0 1 -9.17801,3.95901"
       id="path1830" />
    <path
       inkscape:connector-curvature="0"
       style="fill:none;stroke-width:10"
       d="m 21.56943,93.5455 a 96,96 0 0 1 -9.84362,1.73569"
       id="path1832" />
    <path
       inkscape:connector-curvature="0"
       style="fill:none;stroke-width:10"
       d="m -0.58505,95.99821 a 96,96 0 0 1 -9.97857,-0.58118"
       id="path1834" />
    <path
       inkscape:connector-curvature="0"
       style="fill:none;stroke-width:10"
       d="m -22.708,93.27566 a 96,96 0 0 1 -9.57556,-2.86674"
       id="path1836" />
    <path
       inkscape:connector-curvature="0"
       style="fill:none;stroke-width:10"
       d="m -43.60674,85.52457 a 96,96 0 0 1 -8.656339,-4.99774"
       id="path1838" />
    <path
       inkscape:connector-curvature="0"
       style="fill:none;stroke-width:10"
       d="m -62.154633,73.16284 a 96,96 0 0 1 -7.270448,-6.85932"
       id="path1840" />
    <path
       inkscape:connector-curvature="0"
       style="fill:none;stroke-width:10"
       d="m -77.35177,56.85688 a 96,96 0 0 1 -5.492605,-8.3511"
       id="path1842" />
    <path
       inkscape:connector-curvature="0"
       style="fill:none;stroke-width:10"
       d="m -88.378836,37.48575 a 96,96 0 0 1 -3.418656,-9.39268"
       id="path1844" />
    <path
       inkscape:connector-curvature="0"
       style="fill:none;stroke-width:10"
       d="M -94.641376,16.09375 A 96,96 0 0 1 -95.80178,6.16586"
       id="path1846" />
    <path
       inkscape:connector-curvature="0"
       style="fill:none;stroke-width:10"
       d="m -95.80179,-6.16586 a 96,96 0 0 1 1.160405,-9.92789"
       id="path1848" />
    <path
       inkscape:connector-curvature="0"
       style="fill:none;stroke-width:10"
       d="m -91.79749,-28.09307 a 96,96 0 0 1 3.418655,-9.39268"
       id="path1850" />
    <path
       inkscape:connector-curvature="0"
       style="fill:none;stroke-width:10"
       d="m -82.844367,-48.505775 a 96,96 0 0 1 5.492605,-8.351101"
       id="path1852" />
    <path
       inkscape:connector-curvature="0"
       style="fill:none;stroke-width:10"
       d="m -69.425088,-66.303526 a 96,96 0 0 1 7.270448,-6.859314"
       id="path1854" />
    <path
       inkscape:connector-curvature="0"
       style="fill:none;stroke-width:10"
       d="m -52.263078,-80.52683 a 96,96 0 0 1 8.65634,-4.99774"
       id="path1856" />
    <path
       inkscape:connector-curvature="0"
       style="fill:none;stroke-width:10"
       d="m -32.28355,-90.408912 a 96,96 0 0 1 9.57556,-2.866736"
       id="path1858" />
    <path
       inkscape:connector-curvature="0"
       style="fill:none;stroke-width:10"
       d="m -10.56362,-95.41703 a 96,96 0 0 1 9.97857,-0.58119"
       id="path1860" />
    <path
       inkscape:connector-curvature="0"
       style="fill:none;stroke-width:10"
       d="m 11.72581,-95.28119 a 96,96 0 0 1 9.84362,1.735697"
       id="path1862" />
    <path
       inkscape:connector-curvature="0"
       style="fill:none;stroke-width:10"
       d="m 33.38309,-90.00872 a 96,96 0 0 1 9.17801,3.959007"
       id="path1864" />
    <path
       inkscape:connector-curvature="0"
       style="fill:none;stroke-width:10"
       d="m 53.24069,-79.883847 a 96,96 0 0 1 8.0176,5.968886"
       id="path1866" />
    <path
       inkscape:connector-curvature="0"
       style="fill:none;stroke-width:10"
       d="m 70.22806,-65.452425 a 96,96 0 0 1 6.42497,7.656982"
       id="path1868" />
    <path
       inkscape:connector-curvature="0"
       style="fill:none;stroke-width:10"
       d="m 83.42942,-47.49244 a 96,96 0 0 1 4.48596,8.932286"
       id="path1870" />
    <path
       inkscape:connector-curvature="0"
       style="fill:none;stroke-width:10"
       d="m 92.13308,-26.97213 a 96,96 0 0 1 2.30511,9.72605"
       id="path1872" />
    <g
       id="g2180">
      <circle
         style="stroke:none"
         cy="0"
         cx="0"
         r="2"
         transform="translate(40)"
         x="0"
         y="0"
         id="circle2170" />
      <circle
         style="stroke:none"
         cy="0"
         cx="0"
         r="2"
         transform="translate(50)"
         x="0"
         y="0"
         id="circle2172" />
      <circle
         style="stroke:none"
         cy="0"
         cx="0"
         r="2"
         transform="translate(60)"
         x="0"
         y="0"
         id="circle2174" />
      <circle
         style="stroke:none"
         cy="0"
         cx="0"
         r="2"
         transform="translate(70)"
         x="0"
         y="0"
         id="circle2176" />
      <circle
         style="stroke:none"
         cy="0"
         cx="0"
         r="2"
         transform="translate(80)"
         x="0"
         y="0"
         id="circle2178" />
    </g>
    <g
       transform="rotate(22.5,6.2696854e-6,-6.2696854e-6)"
       id="g2192">
      <circle
         style="stroke:none"
         cy="0"
         cx="0"
         r="2"
         transform="translate(40)"
         x="0"
         y="0"
         id="circle2182" />
      <circle
         style="stroke:none"
         cy="0"
         cx="0"
         r="2"
         transform="translate(50)"
         x="0"
         y="0"
         id="circle2184" />
      <circle
         style="stroke:none"
         cy="0"
         cx="0"
         r="2"
         transform="translate(60)"
         x="0"
         y="0"
         id="circle2186" />
      <circle
         style="stroke:none"
         cy="0"
         cx="0"
         r="2"
         transform="translate(70)"
         x="0"
         y="0"
         id="circle2188" />
      <circle
         style="stroke:none"
         cy="0"
         cx="0"
         r="2"
         transform="translate(80)"
         x="0"
         y="0"
         id="circle2190" />
    </g>
    <g
       transform="rotate(45,-1.0593274e-7,8.1059327e-6)"
       id="g2204">
      <circle
         style="stroke:none"
         cy="0"
         cx="0"
         r="2"
         transform="translate(40)"
         x="0"
         y="0"
         id="circle2194" />
      <circle
         style="stroke:none"
         cy="0"
         cx="0"
         r="2"
         transform="translate(50)"
         x="0"
         y="0"
         id="circle2196" />
      <circle
         style="stroke:none"
         cy="0"
         cx="0"
         r="2"
         transform="translate(60)"
         x="0"
         y="0"
         id="circle2198" />
      <circle
         style="stroke:none"
         cy="0"
         cx="0"
         r="2"
         transform="translate(70)"
         x="0"
         y="0"
         id="circle2200" />
      <circle
         style="stroke:none"
         cy="0"
         cx="0"
         r="2"
         transform="translate(80)"
         x="0"
         y="0"
         id="circle2202" />
    </g>
    <g
       transform="rotate(67.5,-8.0666373e-7,6.8066637e-6)"
       id="g2216">
      <circle
         style="stroke:none"
         cy="0"
         cx="0"
         r="2"
         transform="translate(40)"
         x="0"
         y="0"
         id="circle2206" />
      <circle
         style="stroke:none"
         cy="0"
         cx="0"
         r="2"
         transform="translate(50)"
         x="0"
         y="0"
         id="circle2208" />
      <circle
         style="stroke:none"
         cy="0"
         cx="0"
         r="2"
         transform="translate(60)"
         x="0"
         y="0"
         id="circle2210" />
      <circle
         style="stroke:none"
         cy="0"
         cx="0"
         r="2"
         transform="translate(70)"
         x="0"
         y="0"
         id="circle2212" />
      <circle
         style="stroke:none"
         cy="0"
         cx="0"
         r="2"
         transform="translate(80)"
         x="0"
         y="0"
         id="circle2214" />
    </g>
    <g
       transform="rotate(90)"
       id="g2228">
      <circle
         style="stroke:none"
         cy="0"
         cx="0"
         r="2"
         transform="translate(40)"
         x="0"
         y="0"
         id="circle2218" />
      <circle
         style="stroke:none"
         cy="0"
         cx="0"
         r="2"
         transform="translate(50)"
         x="0"
         y="0"
         id="circle2220" />
      <circle
         style="stroke:none"
         cy="0"
         cx="0"
         r="2"
         transform="translate(60)"
         x="0"
         y="0"
         id="circle2222" />
      <circle
         style="stroke:none"
         cy="0"
         cx="0"
         r="2"
         transform="translate(70)"
         x="0"
         y="0"
         id="circle2224" />
      <circle
         style="stroke:none"
         cy="0"
         cx="0"
         r="2"
         transform="translate(80)"
         x="0"
         y="0"
         id="circle2226" />
    </g>
    <g
       transform="rotate(112.5,4.2520176e-7,5.9479825e-7)"
       id="g2240">
      <circle
         style="stroke:none"
         cy="0"
         cx="0"
         r="2"
         transform="translate(40)"
         x="0"
         y="0"
         id="circle2230" />
      <circle
         style="stroke:none"
         cy="0"
         cx="0"
         r="2"
         transform="translate(50)"
         x="0"
         y="0"
         id="circle2232" />
      <circle
         style="stroke:none"
         cy="0"
         cx="0"
         r="2"
         transform="translate(60)"
         x="0"
         y="0"
         id="circle2234" />
      <circle
         style="stroke:none"
         cy="0"
         cx="0"
         r="2"
         transform="translate(70)"
         x="0"
         y="0"
         id="circle2236" />
      <circle
         style="stroke:none"
         cy="0"
         cx="0"
         r="2"
         transform="translate(80)"
         x="0"
         y="0"
         id="circle2238" />
    </g>
    <g
       transform="rotate(135)"
       id="g2252">
      <circle
         style="stroke:none"
         cy="0"
         cx="0"
         r="2"
         transform="translate(40)"
         x="0"
         y="0"
         id="circle2242" />
      <circle
         style="stroke:none"
         cy="0"
         cx="0"
         r="2"
         transform="translate(50)"
         x="0"
         y="0"
         id="circle2244" />
      <circle
         style="stroke:none"
         cy="0"
         cx="0"
         r="2"
         transform="translate(60)"
         x="0"
         y="0"
         id="circle2246" />
      <circle
         style="stroke:none"
         cy="0"
         cx="0"
         r="2"
         transform="translate(70)"
         x="0"
         y="0"
         id="circle2248" />
      <circle
         style="stroke:none"
         cy="0"
         cx="0"
         r="2"
         transform="translate(80)"
         x="0"
         y="0"
         id="circle2250" />
    </g>
    <g
       transform="rotate(157.5)"
       id="g2264">
      <circle
         style="stroke:none"
         cy="0"
         cx="0"
         r="2"
         transform="translate(40)"
         x="0"
         y="0"
         id="circle2254" />
      <circle
         style="stroke:none"
         cy="0"
         cx="0"
         r="2"
         transform="translate(50)"
         x="0"
         y="0"
         id="circle2256" />
      <circle
         style="stroke:none"
         cy="0"
         cx="0"
         r="2"
         transform="translate(60)"
         x="0"
         y="0"
         id="circle2258" />
      <circle
         style="stroke:none"
         cy="0"
         cx="0"
         r="2"
         transform="translate(70)"
         x="0"
         y="0"
         id="circle2260" />
      <circle
         style="stroke:none"
         cy="0"
         cx="0"
         r="2"
         transform="translate(80)"
         x="0"
         y="0"
         id="circle2262" />
    </g>
    <g
       transform="scale(-1)"
       id="g2276">
      <circle
         style="stroke:none"
         cy="0"
         cx="0"
         r="2"
         transform="translate(40)"
         x="0"
         y="0"
         id="circle2266" />
      <circle
         style="stroke:none"
         cy="0"
         cx="0"
         r="2"
         transform="translate(50)"
         x="0"
         y="0"
         id="circle2268" />
      <circle
         style="stroke:none"
         cy="0"
         cx="0"
         r="2"
         transform="translate(60)"
         x="0"
         y="0"
         id="circle2270" />
      <circle
         style="stroke:none"
         cy="0"
         cx="0"
         r="2"
         transform="translate(70)"
         x="0"
         y="0"
         id="circle2272" />
      <circle
         style="stroke:none"
         cy="0"
         cx="0"
         r="2"
         transform="translate(80)"
         x="0"
         y="0"
         id="circle2274" />
    </g>
    <g
       transform="rotate(-157.5)"
       id="g2288">
      <circle
         style="stroke:none"
         cy="0"
         cx="0"
         r="2"
         transform="translate(40)"
         x="0"
         y="0"
         id="circle2278" />
      <circle
         style="stroke:none"
         cy="0"
         cx="0"
         r="2"
         transform="translate(50)"
         x="0"
         y="0"
         id="circle2280" />
      <circle
         style="stroke:none"
         cy="0"
         cx="0"
         r="2"
         transform="translate(60)"
         x="0"
         y="0"
         id="circle2282" />
      <circle
         style="stroke:none"
         cy="0"
         cx="0"
         r="2"
         transform="translate(70)"
         x="0"
         y="0"
         id="circle2284" />
      <circle
         style="stroke:none"
         cy="0"
         cx="0"
         r="2"
         transform="translate(80)"
         x="0"
         y="0"
         id="circle2286" />
    </g>
    <g
       transform="rotate(-135)"
       id="g2300">
      <circle
         style="stroke:none"
         cy="0"
         cx="0"
         r="2"
         transform="translate(40)"
         x="0"
         y="0"
         id="circle2290" />
      <circle
         style="stroke:none"
         cy="0"
         cx="0"
         r="2"
         transform="translate(50)"
         x="0"
         y="0"
         id="circle2292" />
      <circle
         style="stroke:none"
         cy="0"
         cx="0"
         r="2"
         transform="translate(60)"
         x="0"
         y="0"
         id="circle2294" />
      <circle
         style="stroke:none"
         cy="0"
         cx="0"
         r="2"
         transform="translate(70)"
         x="0"
         y="0"
         id="circle2296" />
      <circle
         style="stroke:none"
         cy="0"
         cx="0"
         r="2"
         transform="translate(80)"
         x="0"
         y="0"
         id="circle2298" />
    </g>
    <g
       transform="rotate(-112.5,5.9479825e-7,4.2520176e-7)"
       id="g2312">
      <circle
         style="stroke:none"
         cy="0"
         cx="0"
         r="2"
         transform="translate(40)"
         x="0"
         y="0"
         id="circle2302" />
      <circle
         style="stroke:none"
         cy="0"
         cx="0"
         r="2"
         transform="translate(50)"
         x="0"
         y="0"
         id="circle2304" />
      <circle
         style="stroke:none"
         cy="0"
         cx="0"
         r="2"
         transform="translate(60)"
         x="0"
         y="0"
         id="circle2306" />
      <circle
         style="stroke:none"
         cy="0"
         cx="0"
         r="2"
         transform="translate(70)"
         x="0"
         y="0"
         id="circle2308" />
      <circle
         style="stroke:none"
         cy="0"
         cx="0"
         r="2"
         transform="translate(80)"
         x="0"
         y="0"
         id="circle2310" />
    </g>
    <g
       transform="rotate(-90)"
       id="g2324">
      <circle
         style="stroke:none"
         cy="0"
         cx="0"
         r="2"
         transform="translate(40)"
         x="0"
         y="0"
         id="circle2314" />
      <circle
         style="stroke:none"
         cy="0"
         cx="0"
         r="2"
         transform="translate(50)"
         x="0"
         y="0"
         id="circle2316" />
      <circle
         style="stroke:none"
         cy="0"
         cx="0"
         r="2"
         transform="translate(60)"
         x="0"
         y="0"
         id="circle2318" />
      <circle
         style="stroke:none"
         cy="0"
         cx="0"
         r="2"
         transform="translate(70)"
         x="0"
         y="0"
         id="circle2320" />
      <circle
         style="stroke:none"
         cy="0"
         cx="0"
         r="2"
         transform="translate(80)"
         x="0"
         y="0"
         id="circle2322" />
    </g>
    <g
       transform="rotate(-67.5,6.8066637e-6,-8.0666373e-7)"
       id="g2336">
      <circle
         style="stroke:none"
         cy="0"
         cx="0"
         r="2"
         transform="translate(40)"
         x="0"
         y="0"
         id="circle2326" />
      <circle
         style="stroke:none"
         cy="0"
         cx="0"
         r="2"
         transform="translate(50)"
         x="0"
         y="0"
         id="circle2328" />
      <circle
         style="stroke:none"
         cy="0"
         cx="0"
         r="2"
         transform="translate(60)"
         x="0"
         y="0"
         id="circle2330" />
      <circle
         style="stroke:none"
         cy="0"
         cx="0"
         r="2"
         transform="translate(70)"
         x="0"
         y="0"
         id="circle2332" />
      <circle
         style="stroke:none"
         cy="0"
         cx="0"
         r="2"
         transform="translate(80)"
         x="0"
         y="0"
         id="circle2334" />
    </g>
    <g
       transform="rotate(-45,8.1059327e-6,-1.0593274e-7)"
       id="g2348">
      <circle
         style="stroke:none"
         cy="0"
         cx="0"
         r="2"
         transform="translate(40)"
         x="0"
         y="0"
         id="circle2338" />
      <circle
         style="stroke:none"
         cy="0"
         cx="0"
         r="2"
         transform="translate(50)"
         x="0"
         y="0"
         id="circle2340" />
      <circle
         style="stroke:none"
         cy="0"
         cx="0"
         r="2"
         transform="translate(60)"
         x="0"
         y="0"
         id="circle2342" />
      <circle
         style="stroke:none"
         cy="0"
         cx="0"
         r="2"
         transform="translate(70)"
         x="0"
         y="0"
         id="circle2344" />
      <circle
         style="stroke:none"
         cy="0"
         cx="0"
         r="2"
         transform="translate(80)"
         x="0"
         y="0"
         id="circle2346" />
    </g>
    <g
       transform="rotate(-22.5,-6.2696854e-6,6.2696854e-6)"
       id="g2360">
      <circle
         style="stroke:none"
         cy="0"
         cx="0"
         r="2"
         transform="translate(40)"
         x="0"
         y="0"
         id="circle2350" />
      <circle
         style="stroke:none"
         cy="0"
         cx="0"
         r="2"
         transform="translate(50)"
         x="0"
         y="0"
         id="circle2352" />
      <circle
         style="stroke:none"
         cy="0"
         cx="0"
         r="2"
         transform="translate(60)"
         x="0"
         y="0"
         id="circle2354" />
      <circle
         style="stroke:none"
         cy="0"
         cx="0"
         r="2"
         transform="translate(70)"
         x="0"
         y="0"
         id="circle2356" />
      <circle
         style="stroke:none"
         cy="0"
         cx="0"
         r="2"
         transform="translate(80)"
         x="0"
         y="0"
         id="circle2358" />
    </g>
    <text
       xml:space="preserve"
       style="font-style:normal;font-variant:normal;font-weight:normal;font-stretch:normal;font-size:40px;line-height:1.25;font-family:'Ubuntu Mono';-inkscape-font-specification:'Ubuntu Mono';letter-spacing:0px;word-spacing:0px;fill:#000000;fill-opacity:1;stroke:none"
       x="-23.697906"
       y="17.460938"
       id="text2915"><tspan
         sodipodi:role="line"
         id="tspan2913"
         x="-23.697906"
         y="17.460938"
         style="font-style:normal;font-variant:normal;font-weight:normal;font-stretch:normal;font-size:53.33333206px;font-family:'Liberation Serif';-inkscape-font-specification:'Liberation Serif'">M</tspan></text>
  </g>
  <g
     inkscape:groupmode="layer"
     id="layer3"
     inkscape:label="Layer 2"
     style="display:inline">
    <g
       transform="translate(-2.3921558e-8,-4.3911622e-6)"
       style="display:inline"
       id="g2168">
      <line
         style="fill:none;stroke-width:3"
         transform="translate(0,-2.5)"
         x1="96"
         x2="128"
         y1="0"
         y2="0"
         id="line2042" />
      <line
         style="fill:none;stroke-width:3"
         transform="translate(0,2.5)"
         x1="96"
         x2="128"
         y1="0"
         y2="0"
         id="line2044" />
      <line
         style="fill:none;stroke-width:3"
         x1="96"
         x2="126.05539"
         y1="0"
         y2="22.226967"
         id="line2046" />
      <line
         style="fill:none;stroke-width:3"
         x1="93.412308"
         x2="126.05539"
         y1="22.139124"
         y2="22.226967"
         id="line2048" />
      <line
         style="fill:none;stroke-width:3"
         x1="93.412308"
         x2="120.28065"
         y1="22.139124"
         y2="43.77858"
         id="line2050" />
      <line
         style="fill:none;stroke-width:3"
         x1="85.788734"
         x2="120.28065"
         y1="43.084721"
         y2="43.77858"
         id="line2052" />
      <line
         style="fill:none;stroke-width:3"
         x1="85.788734"
         x2="110.85125"
         y1="43.084721"
         y2="64"
         id="line2054" />
      <line
         style="fill:none;stroke-width:3"
         x1="73.540268"
         x2="110.85125"
         y1="61.707611"
         y2="64"
         id="line2056" />
      <line
         style="fill:none;stroke-width:3"
         x1="73.540268"
         x2="98.053688"
         y1="61.707611"
         y2="82.276817"
         id="line2058" />
      <line
         style="fill:none;stroke-width:3"
         x1="73.540268"
         x2="82.276817"
         y1="61.707611"
         y2="98.053688"
         id="line2060" />
      <line
         style="fill:none;stroke-width:3"
         x1="57.327225"
         x2="82.276817"
         y1="77.00383"
         y2="98.053688"
         id="line2062" />
      <line
         style="fill:none;stroke-width:3"
         x1="57.327225"
         x2="64"
         y1="77.00383"
         y2="110.85125"
         id="line2064" />
      <line
         style="fill:none;stroke-width:3"
         x1="38.023659"
         x2="64"
         y1="88.148743"
         y2="110.85125"
         id="line2066" />
      <line
         style="fill:none;stroke-width:3"
         x1="38.023659"
         x2="43.77858"
         y1="88.148743"
         y2="120.28065"
         id="line2068" />
      <line
         style="fill:none;stroke-width:3"
         x1="16.670225"
         x2="43.77858"
         y1="94.541542"
         y2="120.28065"
         id="line2070" />
      <line
         style="fill:none;stroke-width:3"
         x1="16.670225"
         x2="22.226967"
         y1="94.541542"
         y2="126.05539"
         id="line2072" />
      <line
         style="fill:none;stroke-width:3"
         x1="16.670225"
         x2="7.8377399e-15"
         y1="94.541542"
         y2="128"
         id="line2074" />
      <line
         style="fill:none;stroke-width:3"
         x1="-5.5819035"
         x2="7.8377399e-15"
         y1="95.837585"
         y2="128"
         id="line2076" />
      <line
         style="fill:none;stroke-width:3"
         x1="-5.5819035"
         x2="-22.226967"
         y1="95.837585"
         y2="126.05539"
         id="line2078" />
      <line
         style="fill:none;stroke-width:3"
         x1="-27.53311"
         x2="-22.226967"
         y1="91.966995"
         y2="126.05539"
         id="line2080" />
      <line
         style="fill:none;stroke-width:3"
         x1="-27.53311"
         x2="-43.77858"
         y1="91.966995"
         y2="120.28065"
         id="line2082" />
      <line
         style="fill:none;stroke-width:3"
         x1="-48"
         x2="-43.77858"
         y1="83.138435"
         y2="120.28065"
         id="line2084" />
      <line
         style="fill:none;stroke-width:3"
         x1="-48"
         x2="-64"
         y1="83.138435"
         y2="110.85125"
         id="line2086" />
      <line
         style="fill:none;stroke-width:3"
         x1="-48"
         x2="-82.276817"
         y1="83.138435"
         y2="98.053688"
         id="line2088" />
      <line
         style="fill:none;stroke-width:3"
         x1="-65.879196"
         x2="-82.276817"
         y1="69.827873"
         y2="98.053688"
         id="line2090" />
      <line
         style="fill:none;stroke-width:3"
         x1="-65.879196"
         x2="-98.053688"
         y1="69.827873"
         y2="82.276817"
         id="line2092" />
      <line
         style="fill:none;stroke-width:3"
         x1="-80.206833"
         x2="-98.053688"
         y1="52.752861"
         y2="82.276817"
         id="line2094" />
      <line
         style="fill:none;stroke-width:3"
         x1="-80.206833"
         x2="-110.85125"
         y1="52.752861"
         y2="64"
         id="line2096" />
      <line
         style="fill:none;stroke-width:3"
         x1="-90.210495"
         x2="-110.85125"
         y1="32.833935"
         y2="64"
         id="line2098" />
      <line
         style="fill:none;stroke-width:3"
         x1="-90.210495"
         x2="-120.28065"
         y1="32.833935"
         y2="43.77858"
         id="line2100" />
      <line
         style="fill:none;stroke-width:3"
         x1="-90.210495"
         x2="-126.05539"
         y1="32.833935"
         y2="22.226967"
         id="line2102" />
      <line
         style="fill:none;stroke-width:3"
         x1="-95.350883"
         x2="-126.05539"
         y1="11.144919"
         y2="22.226967"
         id="line2104" />
      <line
         style="fill:none;stroke-width:3"
         x1="-95.350883"
         x2="-128"
         y1="11.144919"
         y2="1.567548e-14"
         id="line2106" />
      <line
         style="fill:none;stroke-width:3"
         x1="-95.350883"
         x2="-128"
         y1="-11.144919"
         y2="1.567548e-14"
         id="line2108" />
      <line
         style="fill:none;stroke-width:3"
         x1="-95.350883"
         x2="-126.05539"
         y1="-11.144919"
         y2="-22.226967"
         id="line2110" />
      <line
         style="fill:none;stroke-width:3"
         x1="-90.210495"
         x2="-126.05539"
         y1="-32.833935"
         y2="-22.226967"
         id="line2112" />
      <line
         style="fill:none;stroke-width:3"
         x1="-90.210495"
         x2="-120.28065"
         y1="-32.833935"
         y2="-43.77858"
         id="line2114" />
      <line
         style="fill:none;stroke-width:3"
         x1="-90.210495"
         x2="-110.85125"
         y1="-32.833935"
         y2="-64"
         id="line2116" />
      <line
         style="fill:none;stroke-width:3"
         x1="-80.206833"
         x2="-110.85125"
         y1="-52.752861"
         y2="-64"
         id="line2118" />
      <line
         style="fill:none;stroke-width:3"
         x1="-80.206833"
         x2="-98.053688"
         y1="-52.752861"
         y2="-82.276817"
         id="line2120" />
      <line
         style="fill:none;stroke-width:3"
         x1="-65.879196"
         x2="-98.053688"
         y1="-69.827873"
         y2="-82.276817"
         id="line2122" />
      <line
         style="fill:none;stroke-width:3"
         x1="-65.879196"
         x2="-82.276817"
         y1="-69.827873"
         y2="-98.053688"
         id="line2124" />
      <line
         style="fill:none;stroke-width:3"
         x1="-48"
         x2="-82.276817"
         y1="-83.138435"
         y2="-98.053688"
         id="line2126" />
      <line
         style="fill:none;stroke-width:3"
         x1="-48"
         x2="-64"
         y1="-83.138435"
         y2="-110.85125"
         id="line2128" />
      <line
         style="fill:none;stroke-width:3"
         x1="-48"
         x2="-43.77858"
         y1="-83.138435"
         y2="-120.28065"
         id="line2130" />
      <line
         style="fill:none;stroke-width:3"
         x1="-27.53311"
         x2="-43.77858"
         y1="-91.966995"
         y2="-120.28065"
         id="line2132" />
      <line
         style="fill:none;stroke-width:3"
         x1="-27.53311"
         x2="-22.226967"
         y1="-91.966995"
         y2="-126.05539"
         id="line2134" />
      <line
         style="fill:none;stroke-width:3"
         x1="-5.5819035"
         x2="-22.226967"
         y1="-95.837585"
         y2="-126.05539"
         id="line2136" />
      <line
         style="fill:none;stroke-width:3"
         x1="-5.5819035"
         x2="-2.3513218e-14"
         y1="-95.837585"
         y2="-128"
         id="line2138" />
      <line
         style="fill:none;stroke-width:3"
         x1="16.670225"
         x2="-2.3513218e-14"
         y1="-94.541542"
         y2="-128"
         id="line2140" />
      <line
         style="fill:none;stroke-width:3"
         x1="16.670225"
         x2="22.226967"
         y1="-94.541542"
         y2="-126.05539"
         id="line2142" />
      <line
         style="fill:none;stroke-width:3"
         x1="16.670225"
         x2="43.77858"
         y1="-94.541542"
         y2="-120.28065"
         id="line2144" />
      <line
         style="fill:none;stroke-width:3"
         x1="38.023659"
         x2="43.77858"
         y1="-88.148743"
         y2="-120.28065"
         id="line2146" />
      <line
         style="fill:none;stroke-width:3"
         x1="38.023659"
         x2="64"
         y1="-88.148743"
         y2="-110.85125"
         id="line2148" />
      <line
         style="fill:none;stroke-width:3"
         x1="57.327225"
         x2="64"
         y1="-77.00383"
         y2="-110.85125"
         id="line2150" />
      <line
         style="fill:none;stroke-width:3"
         x1="57.327225"
         x2="82.276817"
         y1="-77.00383"
         y2="-98.053688"
         id="line2152" />
      <line
         style="fill:none;stroke-width:3"
         x1="73.540268"
         x2="82.276817"
         y1="-61.707611"
         y2="-98.053688"
         id="line2154" />
      <line
         style="fill:none;stroke-width:3"
         x1="73.540268"
         x2="98.053688"
         y1="-61.707611"
         y2="-82.276817"
         id="line2156" />
      <line
         style="fill:none;stroke-width:3"
         x1="73.540268"
         x2="110.85125"
         y1="-61.707611"
         y2="-64"
         id="line2158" />
      <line
         style="fill:none;stroke-width:3"
         x1="85.788734"
         x2="110.85125"
         y1="-43.084721"
         y2="-64"
         id="line2160" />
      <line
         style="fill:none;stroke-width:3"
         x1="85.788734"
         x2="120.28065"
         y1="-43.084721"
         y2="-43.77858"
         id="line2162" />
      <line
         style="fill:none;stroke-width:3"
         x1="93.412308"
         x2="120.28065"
         y1="-22.139124"
         y2="-43.77858"
         id="line2164" />
      <line
         style="fill:none;stroke-width:3"
         x1="93.412308"
         x2="126.05539"
         y1="-22.139124"
         y2="-22.226967"
         id="line2166" />
    </g>
    <circle
       style="display:inline;fill:none;stroke-width:3"
       cx="0"
       cy="0"
       r="133"
       id="circle1966" />
    <circle
       style="display:inline;fill:none;stroke-width:3"
       cx="0"
       cy="0"
       r="123"
       id="circle1968" />
    <path
       inkscape:connector-curvature="0"
       style="display:inline;fill:none;stroke-width:10"
       d="m 127.90236,-4.9987262 a 128,128 0 0 1 0,9.99746"
       id="path1970" />
    <path
       inkscape:connector-curvature="0"
       style="display:inline;fill:none;stroke-width:10"
       d="m 126.82726,17.287234 a 128,128 0 0 1 -1.73604,9.84557"
       id="path1972" />
    <path
       inkscape:connector-curvature="0"
       style="display:inline;fill:none;stroke-width:10"
       d="m 121.89857,39.047924 a 128,128 0 0 1 -3.41933,9.39453"
       id="path1974" />
    <path
       inkscape:connector-curvature="0"
       style="display:inline;fill:none;stroke-width:10"
       d="m 113.26606,59.622164 a 128,128 0 0 1 -4.99873,8.65805"
       id="path1976" />
    <path
       inkscape:connector-curvature="0"
       style="display:inline;fill:none;stroke-width:10"
       d="m 101.19201,78.384804 a 128,128 0 0 1 -6.42624,7.6585"
       id="path1978" />
    <path
       inkscape:connector-curvature="0"
       style="display:inline;fill:none;stroke-width:10"
       d="m 86.0433,94.765774 a 128,128 0 0 1 -7.65849,6.426236"
       id="path1980" />
    <path
       inkscape:connector-curvature="0"
       style="display:inline;fill:none;stroke-width:10"
       d="m 68.28021,108.26733 a 128,128 0 0 1 -8.65805,4.99873"
       id="path1982" />
    <path
       inkscape:connector-curvature="0"
       style="display:inline;fill:none;stroke-width:10"
       d="m 48.44245,118.47924 a 128,128 0 0 1 -9.39454,3.41933"
       id="path1984" />
    <path
       inkscape:connector-curvature="0"
       style="display:inline;fill:none;stroke-width:10"
       d="m 27.1328,125.09122 a 128,128 0 0 1 -9.84557,1.73604"
       id="path1986" />
    <path
       inkscape:connector-curvature="0"
       style="display:inline;fill:none;stroke-width:10"
       d="m 4.99873,127.90236 a 128,128 0 0 1 -9.99746,0"
       id="path1988" />
    <path
       inkscape:connector-curvature="0"
       style="display:inline;fill:none;stroke-width:10"
       d="m -17.28723,126.82725 a 128,128 0 0 1 -9.84557,-1.73604"
       id="path1990" />
    <path
       inkscape:connector-curvature="0"
       style="display:inline;fill:none;stroke-width:10"
       d="m -39.047911,121.89857 a 128,128 0 0 1 -9.394537,-3.41933"
       id="path1992" />
    <path
       inkscape:connector-curvature="0"
       style="display:inline;fill:none;stroke-width:10"
       d="m -59.62215,113.26606 a 128,128 0 0 1 -8.658051,-4.99873"
       id="path1994" />
    <path
       inkscape:connector-curvature="0"
       style="display:inline;fill:none;stroke-width:10"
       d="m -78.384798,101.19202 a 128,128 0 0 1 -7.658497,-6.426246"
       id="path1996" />
    <path
       inkscape:connector-curvature="0"
       style="display:inline;fill:none;stroke-width:10"
       d="m -94.76577,86.043304 a 128,128 0 0 1 -6.42624,-7.6585"
       id="path1998" />
    <path
       inkscape:connector-curvature="0"
       style="display:inline;fill:none;stroke-width:10"
       d="m -108.26733,68.280214 a 128,128 0 0 1 -4.99873,-8.65806"
       id="path2000" />
    <path
       inkscape:connector-curvature="0"
       style="display:inline;fill:none;stroke-width:10"
       d="m -118.47924,48.442454 a 128,128 0 0 1 -3.41933,-9.39453"
       id="path2002" />
    <path
       inkscape:connector-curvature="0"
       style="display:inline;fill:none;stroke-width:10"
       d="m -125.09122,27.132804 a 128,128 0 0 1 -1.73604,-9.84557"
       id="path2004" />
    <path
       inkscape:connector-curvature="0"
       style="display:inline;fill:none;stroke-width:10"
       d="m -127.90236,4.9987338 a 128,128 0 0 1 0,-9.99746"
       id="path2006" />
    <path
       inkscape:connector-curvature="0"
       style="display:inline;fill:none;stroke-width:10"
       d="m -126.82726,-17.287226 a 128,128 0 0 1 1.73604,-9.84557"
       id="path2008" />
    <path
       inkscape:connector-curvature="0"
       style="display:inline;fill:none;stroke-width:10"
       d="m -121.89857,-39.047908 a 128,128 0 0 1 3.41933,-9.394536"
       id="path2010" />
    <path
       inkscape:connector-curvature="0"
       style="display:inline;fill:none;stroke-width:10"
       d="m -113.26606,-59.622146 a 128,128 0 0 1 4.99873,-8.658051"
       id="path2012" />
    <path
       inkscape:connector-curvature="0"
       style="display:inline;fill:none;stroke-width:10"
       d="m -101.19201,-78.384796 a 128,128 0 0 1 6.42624,-7.658496"
       id="path2014" />
    <path
       inkscape:connector-curvature="0"
       style="display:inline;fill:none;stroke-width:10"
       d="m -86.043294,-94.765766 a 128,128 0 0 1 7.658496,-6.426244"
       id="path2016" />
    <path
       inkscape:connector-curvature="0"
       style="display:inline;fill:none;stroke-width:10"
       d="m -68.280199,-108.26733 a 128,128 0 0 1 8.658051,-4.99873"
       id="path2018" />
    <path
       inkscape:connector-curvature="0"
       style="display:inline;fill:none;stroke-width:10"
       d="m -48.442448,-118.47924 a 128,128 0 0 1 9.394536,-3.41933"
       id="path2020" />
    <path
       inkscape:connector-curvature="0"
       style="display:inline;fill:none;stroke-width:10"
       d="m -27.1328,-125.09122 a 128,128 0 0 1 9.84557,-1.73604"
       id="path2022" />
    <path
       inkscape:connector-curvature="0"
       style="display:inline;fill:none;stroke-width:10"
       d="m -4.99873,-127.90236 a 128,128 0 0 1 9.99746,0"
       id="path2024" />
    <path
       inkscape:connector-curvature="0"
       style="display:inline;fill:none;stroke-width:10"
       d="m 17.28723,-126.82725 a 128,128 0 0 1 9.84557,1.73604"
       id="path2026" />
    <path
       inkscape:connector-curvature="0"
       style="display:inline;fill:none;stroke-width:10"
       d="m 39.04791,-121.89857 a 128,128 0 0 1 9.39454,3.41933"
       id="path2028" />
    <path
       inkscape:connector-curvature="0"
       style="display:inline;fill:none;stroke-width:10"
       d="m 59.62216,-113.26605 a 128,128 0 0 1 8.65805,4.99872"
       id="path2030" />
    <path
       inkscape:connector-curvature="0"
       style="display:inline;fill:none;stroke-width:10"
       d="m 78.38481,-101.19201 a 128,128 0 0 1 7.65849,6.426244"
       id="path2032" />
    <path
       inkscape:connector-curvature="0"
       style="display:inline;fill:none;stroke-width:10"
       d="m 94.76577,-86.043293 a 128,128 0 0 1 6.42624,7.658496"
       id="path2034" />
    <path
       inkscape:connector-curvature="0"
       style="display:inline;fill:none;stroke-width:10"
       d="m 108.26733,-68.280196 a 128,128 0 0 1 4.99873,8.658051"
       id="path2036" />
    <path
       inkscape:connector-curvature="0"
       style="display:inline;fill:none;stroke-width:10"
       d="m 118.47924,-48.442443 a 128,128 0 0 1 3.41933,9.394537"
       id="path2038" />
    <path
       inkscape:connector-curvature="0"
       style="display:inline;fill:none;stroke-width:10"
       d="m 125.09122,-27.132796 a 128,128 0 0 1 1.73604,9.84558"
       id="path2040" />
  </g>
</svg>
