<svg height="100%" width="100%" fill="black" stroke="black" viewBox="-42 -42 84 84"><circle r="5" stroke="none" x="0" y="0"></circle><circle cx="0" cy="0" fill="none" r="37" stroke-width="3"></circle><circle cx="0" cy="0" fill="none" r="27" stroke-width="3"></circle><path d="M 31.6101690821271,-4.979679768753793 A 32,32 0,0,1 31.6101690821271,4.979679768753793" fill="none" stroke-width="10" transform="rotate(0)"></path><path d="M 31.6101690821271,-4.979679768753793 A 32,32 0,0,1 31.6101690821271,4.979679768753793" fill="none" stroke-width="10" transform="rotate(40)"></path><path d="M 31.6101690821271,-4.979679768753793 A 32,32 0,0,1 31.6101690821271,4.979679768753793" fill="none" stroke-width="10" transform="rotate(80)"></path><path d="M 31.6101690821271,-4.979679768753793 A 32,32 0,0,1 31.6101690821271,4.979679768753793" fill="none" stroke-width="10" transform="rotate(120)"></path><path d="M 31.6101690821271,-4.979679768753793 A 32,32 0,0,1 31.6101690821271,4.979679768753793" fill="none" stroke-width="10" transform="rotate(160)"></path><path d="M 31.6101690821271,-4.979679768753793 A 32,32 0,0,1 31.6101690821271,4.979679768753793" fill="none" stroke-width="10" transform="rotate(200)"></path><path d="M 31.6101690821271,-4.979679768753793 A 32,32 0,0,1 31.6101690821271,4.979679768753793" fill="none" stroke-width="10" transform="rotate(240)"></path><path d="M 31.6101690821271,-4.979679768753793 A 32,32 0,0,1 31.6101690821271,4.979679768753793" fill="none" stroke-width="10" transform="rotate(280)"></path><path d="M 31.6101690821271,-4.979679768753793 A 32,32 0,0,1 31.6101690821271,4.979679768753793" fill="none" stroke-width="10" transform="rotate(320)"></path><g transform="rotate(0)"><line fill="none" stroke-width="3" transform="translate(0, -2.5)" x1="0" x2="32" y1="0" y2="0"></line><line fill="none" stroke-width="3" transform="translate(0, 2.5)" x1="0" x2="32" y1="0" y2="0"></line><line fill="none" stroke-width="3" x1="0" x2="24.513422179807296" y1="0" y2="20.569203509969256"></line></g></svg>
